# xmcd CD database file
#
# Track frame offsets:
#	150
#	12445
#	31685
#	44970
#	59460
#	74340
#	87230
#	97852
#	110610
#	125000
#	138040
#	151935
#	164925
#	177482
#	191295
#	204050
#
# Disc length: 2916 seconds
#
# Revision: 1
# Processed by: cddbd v1.5.2PL0 Copyright (c) Steve Scherf et al.
# Submitted via: CDex 1.51
#
DISCID=db0b6210
DTITLE=Ronaldo Viola and João Carvalho - VOL. 5
DYEAR=1900
DGENRE=Sertaneja
TTITLE0=Flor de Goias
TTITLE1=Carro de Boi
TTITLE2=Derramando Paixão
TTITLE3=Mergulhado na Saudade
TTITLE4=Meu Silencio
TTITLE5=Noite Chuvosa
TTITLE6=O Avião
TTITLE7=Rainha do Meu Destino
TTITLE8=Recebi seu Recado
TTITLE9=Baila de Chamamé
TTITLE10=Paixão Louca
TTITLE11=Na Voz do Vento
TTITLE12=Pagode do Grotão
TTITLE13=Coração da Natureza
TTITLE14=Viola Pagodeira
TTITLE15=Sem Terra e Sem Caminho
EXTD=
EXTT0=
EXTT1=
EXTT2=
EXTT3=
EXTT4=
EXTT5=
EXTT6=
EXTT7=
EXTT8=
EXTT9=
EXTT10=
EXTT11=
EXTT12=
EXTT13=
EXTT14=
EXTT15=
PLAYORDER=
